:SAMPLES-PER-SECOND 30
:FRAME-RANGE 1-668
:FULLY-SPECIFIED
:DEGREES
314
root  0.0728226 39.5866 29.0541 -173.554 -5.86288 -179.97
RightUpLeg  -12.0185 1.31453 -9.79412
RightLeg  13.12 5.67148 0.881062
RightFoot  -7.89879 -0.387859 11.0809
RightToes  5.38607e-012 1.2921e-014 -6.02303e-014
Spine  -9.13231 -1.42638 -0.909647
Spine1  13.8544 -0.245761 -4.44039
HEad  8.24598 -41.7028 4.41841
LeftShoulder1  1.71347 -3.01536 -20.9665
LeftArm  -4.25704 -7.5723 -24.9836
LeftForeArm  30.8679 -0.429436 -11.8164
LeftHand  -0.0392071 3.67251 1.47608
RightShoulder  2.46305 5.24363 22.6727
RightArm  -39.4392 24.012 24.4063
RightForeArm  66.1002 -4.21027 -3.75237
RightHand  -0.070993 -5.16335 -39.7379
LeftUpLeg  -13.7175 0.388534 -1.50463
LeftLeg  16.9509 7.00343 3.24655
LeftFoot  -8.57266 0.0724923 -0.86898
LeftToes  -6.11857e-011 5.00151e-011 -2.22593e-011
315
root  0.126693 39.5971 28.8783 -173.714 -6.30455 179.63
RightUpLeg  -11.5506 1.97848 -10.1159
RightLeg  13.388 4.5376 0.644852
RightFoot  -8.16916 -0.362509 11.0471
RightToes  5.38607e-012 1.2921e-014 -6.02303e-014
Spine  -9.42184 -1.2782 -0.620759
Spine1  13.7754 -0.126439 -4.49705
HEad  8.86179 -41.8098 3.27688
LeftShoulder1  1.64644 -2.73486 -21.1246
LeftArm  -4.36886 -7.07048 -25.2178
LeftForeArm  30.6071 -1.03522 -11.723
LeftHand  -0.0393494 3.75514 1.5478
RightShoulder  2.45771 5.16392 22.8928
RightArm  -40.0578 23.8333 24.7435
RightForeArm  64.5944 -4.19155 -4.17279
RightHand  -0.231773 -4.7287 -40.7993
LeftUpLeg  -13.0008 0.284716 -1.83986
LeftLeg  16.4417 6.70008 3.15201
LeftFoot  -8.56341 0.0739111 -0.926956
LeftToes  -6.11857e-011 5.00151e-011 -2.22593e-011
316
root  0.19265 39.6036 28.7068 -173.73 -6.74774 179.367
RightUpLeg  -11.2173 1.60694 -10.2914
RightLeg  13.5961 4.51343 0.736976
RightFoot  -8.48322 -0.332861 10.9917
RightToes  5.38607e-012 1.2921e-014 -6.02303e-014
Spine  -9.82831 -1.22672 -0.47461
Spine1  13.7763 -0.188409 -4.25535
HEad  9.14705 -41.5911 2.33812
LeftShoulder1  1.60914 -2.56853 -21.2698
LeftArm  -4.27688 -6.01881 -25.4381
LeftForeArm  30.5994 -1.76798 -11.6647
LeftHand  -0.0387068 3.74304 1.51581
RightShoulder  2.43954 5.07456 22.9897
RightArm  -40.2855 23.8358 25.0353
RightForeArm  63.8341 -4.18341 -4.37457
RightHand  -0.304241 -4.54758 -41.623
LeftUpLeg  -12.5589 0.183975 -2.01768
LeftLeg  16.1246 6.42643 3.11399
LeftFoot  -8.58224 0.0725081 -0.870274
LeftToes  -6.11857e-011 5.00151e-011 -2.22593e-011
317
root  0.269591 39.6132 28.5439 -173.671 -7.07211 179.185
RightUpLeg  -11.0155 1.22805 -10.3089
RightLeg  13.7977 4.54298 0.806234
RightFoot  -8.69767 -0.306582 10.6872
RightToes  5.38607e-012 1.2921e-014 -6.02303e-014
Spine  -10.2015 -1.20882 -0.335243
Spine1  13.7292 -0.301678 -3.91973
HEad  9.28999 -41.0586 1.63219
LeftShoulder1  1.56332 -2.36484 -21.4563
LeftArm  -3.7715 -5.01004 -25.3726
LeftForeArm  30.7365 -2.19348 -11.7488
LeftHand  -0.0381567 3.73486 1.34351
RightShoulder  2.43814 5.01784 23.1817
RightArm  -40.815 24.1909 25.3277
RightForeArm  63.674 -4.11818 -4.77814
RightHand  -0.526175 -4.00499 -43.071
LeftUpLeg  -12.2134 -0.0376852 -2.09399
LeftLeg  15.8088 6.3013 3.15292
LeftFoot  -8.62776 0.0811205 -1.23746
LeftToes  -6.11857e-011 5.00151e-011 -2.22593e-011
318
root  0.364059 39.6167 28.4079 -173.626 -7.31369 179.12
RightUpLeg  -10.8472 1.46901 -10.1728
RightLeg  13.905 4.15332 0.690415
RightFoot  -8.91866 -0.281965 10.4323
RightToes  5.38607e-012 1.2921e-014 -6.02303e-014
Spine  -10.4972 -1.16948 -0.0600764
Spine1  13.8041 -0.362613 -3.68139
HEad  9.18324 -40.3867 1.40402
LeftShoulder1  1.51631 -2.18573 -21.5014
LeftArm  -3.42975 -4.27749 -25.262
LeftForeArm  31.1697 -2.02047 -11.8318
LeftHand  -0.0360592 3.68671 1.15539
RightShoulder  2.45244 4.99209 23.4606
RightArm  -40.8172 24.2145 25.5326
RightForeArm  62.9856 -4.1465 -4.7556
RightHand  -0.64881 -3.75798 -44.7884
LeftUpLeg  -12.0339 -0.137783 -1.97508
LeftLeg  15.7288 6.17082 3.11805
LeftFoot  -8.72483 0.0862437 -1.48258
LeftToes  -6.11857e-011 5.00151e-011 -2.22593e-011
319
root  0.464794 39.6285 28.2919 -173.66 -7.41048 179.078
RightUpLeg  -10.6565 1.10688 -10.0033
RightLeg  14.0136 4.3349 0.746829
RightFoot  -9.08287 -0.264386 10.2463
RightToes  5.38607e-012 1.2921e-014 -6.02303e-014
Spine  -10.5187 -1.10963 0.211216
Spine1  13.7199 -0.373508 -3.52951
HEad  9.00066 -39.5089 1.39053
LeftShoulder1  1.47555 -2.04915 -21.4401
LeftArm  -3.53411 -3.42635 -25.1998
LeftForeArm  31.4699 -1.62159 -11.7836
LeftHand  -0.0327076 3.80375 0.936293
RightShoulder  2.45431 4.8611 23.9845
RightArm  -41.124 24.4349 25.5826
RightForeArm  63.4042 -4.10258 -4.9212
RightHand  -0.995127 -3.00687 -46.5539
LeftUpLeg  -11.8395 -0.268918 -1.82639
LeftLeg  15.7607 6.22292 3.13852
LeftFoot  -8.78317 0.0908036 -1.70527
LeftToes  -6.11857e-011 5.00151e-011 -2.22593e-011
